2014030_C5_02_grf
version=1
nRows=24
nColumns=19
inDegrees=no
endheader
time	ground_force_1_vx	ground_force_1_vy	ground_force_1_vz	ground_force_1_px	ground_force_1_py	ground_force_1_pz	ground_force_1_mx	ground_force_1_my	ground_force_1_mz	ground_force_2_vx	ground_force_2_vy	ground_force_2_vz	ground_force_2_px	ground_force_2_py	ground_force_2_pz	ground_force_2_mx	ground_force_2_my	ground_force_2_mz
      0.38700000	      0.29398862	    473.58748317	    -20.19267976	      0.18405066	     -0.00200000	     -0.17011954	      0.00000000	      2.53359262	      0.00000000	      0.00000000	      0.00000000	      0.00000000	      0.00000000	      0.00000000	      0.00000000	      0.00000000	      0.00000000	      0.00000000
      0.38800000	      0.41713894	    474.71573204	    -20.14701068	      0.18466430	     -0.00200000	     -0.17012719	      0.00000000	      2.55066032	      0.00000000	      0.00000000	      0.00000000	      0.00000000	      0.00000000	      0.00000000	      0.00000000	      0.00000000	      0.00000000	      0.00000000
      0.38900000	      0.53589939	    475.85910559	    -20.11185661	      0.18528046	     -0.00200000	     -0.17013272	      0.00000000	      2.56715543	      0.00000000	      0.00000000	      0.00000000	      0.00000000	      0.00000000	      0.00000000	      0.00000000	      0.00000000	      0.00000000	      0.00000000
      0.39000000	      0.65127545	    477.01447457	    -20.08520663	      0.18589852	     -0.00200000	     -0.17013667	      0.00000000	      2.58315753	      0.00000000	      0.00000000	      0.00000000	      0.00000000	      0.00000000	      0.00000000	      0.00000000	      0.00000000	      0.00000000	      0.00000000
      0.39100000	      0.76259125	    478.18462923	    -20.06927207	      0.18651879	     -0.00200000	     -0.17013875	      0.00000000	      2.59850144	      0.00000000	      0.00000000	      0.00000000	      0.00000000	      0.00000000	      0.00000000	      0.00000000	      0.00000000	      0.00000000	      0.00000000
      0.39200000	      0.87080145	    479.36657071	    -20.06195933	      0.18714067	     -0.00200000	     -0.17013940	      0.00000000	      2.61328551	      0.00000000	      0.00000000	      0.00000000	      0.00000000	      0.00000000	      0.00000000	      0.00000000	      0.00000000	      0.00000000	      0.00000000
      0.39300000	      0.97531645	    480.56314141	    -20.06545886	      0.18776440	     -0.00200000	     -0.17013833	      0.00000000	      2.62733066	      0.00000000	      0.00000000	      0.00000000	      0.00000000	      0.00000000	      0.00000000	      0.00000000	      0.00000000	      0.00000000	      0.00000000
      0.39400000	      1.07703393	    481.77144676	    -20.07761449	      0.18838945	     -0.00200000	     -0.17013592	      0.00000000	      2.64075303	      0.00000000	      0.00000000	      0.00000000	      0.00000000	      0.00000000	      0.00000000	      0.00000000	      0.00000000	      0.00000000	      0.00000000
      0.39500000	      1.17547240	    482.99443349	    -20.10057643	      0.18901594	     -0.00200000	     -0.17013190	      0.00000000	      2.65335826	      0.00000000	      0.00000000	      0.00000000	      0.00000000	      0.00000000	      0.00000000	      0.00000000	      0.00000000	      0.00000000	      0.00000000
      0.39600000	      1.27147301	    484.22931135	    -20.13215274	      0.18964345	     -0.00200000	     -0.17012663	      0.00000000	      2.66528067	     -0.00000000	      0.00000000	      0.00000000	      0.00000000	      0.00000000	      0.00000000	      0.00000000	      0.00000000	      0.00000000	      0.00000000
      0.39700000	      1.36466668	    485.47902703	    -20.17443702	      0.19027199	     -0.00200000	     -0.17011983	      0.00000000	      2.67631746	      0.00000000	      0.00000000	      0.00000000	      0.00000000	      0.00000000	      0.00000000	      0.00000000	      0.00000000	      0.00000000	      0.00000000
      0.39800000	      1.45581027	    486.74079031	    -20.22522539	      0.19090120	     -0.00200000	     -0.17011181	      0.00000000	      2.68662285	      0.00000000	      0.00000000	      0.00000000	      0.00000000	      0.00000000	      0.00000000	      0.00000000	      0.00000000	      0.00000000	      0.00000000
      0.39900000	      1.54464331	    488.01765218	    -20.28654292	      0.19153100	     -0.00200000	     -0.17010228	      0.00000000	      2.69598977	      0.00000000	      0.00000000	      0.00000000	      0.00000000	      0.00000000	      0.00000000	      0.00000000	      0.00000000	      0.00000000	      0.00000000
      0.40000000	      1.63183745	    489.30671811	    -20.35618573	      0.19216109	     -0.00200000	     -0.17009152	      0.00000000	      2.70458868	      0.00000000	      0.00000000	      0.00000000	      0.00000000	      0.00000000	      0.00000000	      0.00000000	      0.00000000	      0.00000000	      0.00000000
      0.40100000	      1.71725795	    490.61116949	    -20.43609917	      0.19279128	     -0.00200000	     -0.17007924	      0.00000000	      2.71221023	      0.00000000	      0.00000000	      0.00000000	      0.00000000	      0.00000000	      0.00000000	      0.00000000	      0.00000000	      0.00000000	      0.00000000
      0.40200000	      1.80149043	    491.92803353	    -20.52410096	      0.19342132	     -0.00200000	     -0.17006574	      0.00000000	      2.71903888	      0.00000000	      0.00000000	      0.00000000	      0.00000000	      0.00000000	      0.00000000	      0.00000000	      0.00000000	      0.00000000	      0.00000000
      0.40300000	      1.88454491	    493.26067418	    -20.62202394	      0.19405093	     -0.00200000	     -0.17005073	      0.00000000	      2.72486605	      0.00000000	      0.00000000	      0.00000000	      0.00000000	      0.00000000	      0.00000000	      0.00000000	      0.00000000	      0.00000000	      0.00000000
      0.40400000	      1.96691486	    494.60614473	    -20.72772086	      0.19467996	     -0.00200000	     -0.17003454	      0.00000000	      2.72988536	      0.00000000	      0.00000000	      0.00000000	      0.00000000	      0.00000000	      0.00000000	      0.00000000	      0.00000000	      0.00000000	      0.00000000
      0.40500000	      2.04876845	    495.96783519	    -20.84291354	      0.19530796	     -0.00200000	     -0.17001688	      0.00000000	      2.73388667	      0.00000000	      0.00000000	      0.00000000	      0.00000000	      0.00000000	      0.00000000	      0.00000000	      0.00000000	      0.00000000	      0.00000000
      0.40600000	      2.13049375	    497.34272063	    -20.96550763	      0.19593488	     -0.00200000	     -0.16999809	      0.00000000	      2.73706696	      0.00000000	      0.00000000	      0.00000000	      0.00000000	      0.00000000	      0.00000000	      0.00000000	      0.00000000	      0.00000000	      0.00000000
      0.40700000	      2.21243757	    498.73439968	    -21.09709233	      0.19656015	     -0.00200000	     -0.16997795	      0.00000000	      2.73921375	      0.00000000	      0.00000000	      0.00000000	      0.00000000	      0.00000000	      0.00000000	      0.00000000	      0.00000000	      0.00000000	      0.00000000
      0.40800000	      2.29487196	    500.13969094	    -21.23564631	      0.19718383	     -0.00200000	     -0.16995678	      0.00000000	      2.74052962	      0.00000000	      0.00000000	      0.00000000	      0.00000000	      0.00000000	      0.00000000	      0.00000000	      0.00000000	      0.00000000	      0.00000000
      0.40900000	      2.37832475	    501.56219304	    -21.38262466	      0.19780517	     -0.00200000	     -0.16993442	      0.00000000	      2.74080334	      0.00000000	      0.00000000	      0.00000000	      0.00000000	      0.00000000	      0.00000000	      0.00000000	      0.00000000	      0.00000000	      0.00000000
      0.41000000	      2.46292120	    502.99856812	    -21.53610438	      0.19842437	     -0.00200000	     -0.16991121	      0.00000000	      2.74024154	      0.00000000	      0.00000000	      0.00000000	      0.00000000	      0.00000000	      0.00000000	      0.00000000	      0.00000000	      0.00000000	      0.00000000
